HIERARCHY
ROOT Hips
{
    OFFSET 0.000000 0.000000 0.000000
    CHANNELS 6 Xposition Yposition Zposition Zrotation Xrotation Yrotation
    JOINT Spine
    {
        OFFSET -0.000000 8.349382 0.000000
        CHANNELS 3 Zrotation Xrotation Yrotation
        JOINT Spine1
        {
            OFFSET -0.000000 23.269058 0.000000
            CHANNELS 3 Zrotation Xrotation Yrotation
            JOINT Neck
            {
                OFFSET -0.000000 23.173496 2.106681
                CHANNELS 3 Zrotation Xrotation Yrotation
                JOINT Head
                {
                    OFFSET -0.000000 14.255042 -2.036435
                    CHANNELS 3 Zrotation Xrotation Yrotation
                    End Site
                    {
                        OFFSET -0.000000 25.455433 0.000000
                    }
                }
            }
            JOINT LeftShoulder
            {
                OFFSET 3.917082 21.531742 0.000256
                CHANNELS 3 Zrotation Xrotation Yrotation
                JOINT LeftArm
                {
                    OFFSET 10.728225 0.000000 0.000000
                    CHANNELS 3 Zrotation Xrotation Yrotation
                    JOINT LeftForeArm
                    {
                        OFFSET 30.046112 0.000000 0.000000
                        CHANNELS 3 Zrotation Xrotation Yrotation
                        JOINT LeftHand
                        {
                            OFFSET 29.023712 0.000000 0.000000
                            CHANNELS 3 Zrotation Xrotation Yrotation
                            End Site
                            {
                                OFFSET 15.273261 0.000000 0.000000
                            }
                        }
                    }
                }
            }
            JOINT RightShoulder
            {
                OFFSET -3.920664 21.531742 0.000256
                CHANNELS 3 Zrotation Xrotation Yrotation
                JOINT RightArm
                {
                    OFFSET -10.728225 0.000000 0.000000
                    CHANNELS 3 Zrotation Xrotation Yrotation
                    JOINT RightForeArm
                    {
                        OFFSET -30.046112 0.000000 0.000000
                        CHANNELS 3 Zrotation Xrotation Yrotation
                        JOINT RightHand
                        {
                            OFFSET -29.023712 0.000000 0.000000
                            CHANNELS 3 Zrotation Xrotation Yrotation
                            End Site
                            {
                                OFFSET -15.273261 0.000000 0.000000
                            }
                        }
                    }
                }
            }
        }
    }
    JOINT LeftUpLeg
    {
        OFFSET 10.182174 0.000000 0.000000
        CHANNELS 3 Zrotation Xrotation Yrotation
        JOINT LeftLeg
        {
            OFFSET -0.000000 -49.689274 0.000000
            CHANNELS 3 Zrotation Xrotation Yrotation
            JOINT LeftFoot
            {
                OFFSET -0.000000 -39.155319 0.000000
                CHANNELS 3 Zrotation Xrotation Yrotation
                JOINT LeftToeBase
                {
                    OFFSET -0.000000 -6.618412 15.273261
                    CHANNELS 3 Zrotation Xrotation Yrotation
                    End Site
                    {
                        OFFSET -0.000000 0.000000 4.072869
                    }
                }
            }
        }
    }
    JOINT RightUpLeg
    {
        OFFSET -10.182174 0.000000 0.000000
        CHANNELS 3 Zrotation Xrotation Yrotation
        JOINT RightLeg
        {
            OFFSET -0.000000 -49.689274 0.000000
            CHANNELS 3 Zrotation Xrotation Yrotation
            JOINT RightFoot
            {
                OFFSET -0.000000 -39.155319 0.000000
                CHANNELS 3 Zrotation Xrotation Yrotation
                JOINT RightToeBase
                {
                    OFFSET -0.000000 -6.618412 15.273261
                    CHANNELS 3 Zrotation Xrotation Yrotation
                    End Site
                    {
                        OFFSET -0.000000 0.000000 4.072869
                    }
                }
            }
        }
    }
}
MOTION
Frames:    13
Frame Time:    0.008333
8.007275    98.033920    20.581501    5.391420    0.068533    98.491821    -2.108319    -3.221712    -0.017335    3.076489    8.166786    -0.177600    7.104614    14.459530    13.917295    -11.501576    -4.132903    12.351066    14.548892    -4.369336    -27.390182    -45.086994    2.513132    -27.338018    6.613276    -40.423126    -140.668427    27.474483    -17.198658    32.295799    -7.647559    7.381371    -14.596745    42.618488    65.267349    38.927402    -1.104486    -3.796538    17.773211    -4.669651    -3.917954    7.210476    6.240507    8.118526    -5.590017    -5.729588    0.437812    -2.864395    -0.158251    -2.939967    20.668808    0.000000    0.000000    0.000000    -5.755146    5.414237    -5.614151    4.192805    7.837730    -2.403527    3.464388    -3.010412    -4.383788    0.000000    0.000000    0.000000    
8.018952    98.043373    20.567156    5.369734    0.072890    98.505669    -2.163275    -3.232381    -0.070938    3.195347    8.145947    -0.243815    7.198275    14.145115    13.970263    -11.730074    -3.612862    12.395737    14.609208    -4.510268    -27.260353    -45.262745    2.317684    -27.182224    6.490911    -40.206142    -140.643951    27.152454    -17.403624    32.162373    -7.775937    7.281842    -14.721055    42.381790    65.314468    39.235947    -0.894200    -3.750527    17.390596    -4.909921    -3.920508    7.154268    6.228547    8.134214    -5.593467    -5.728555    0.367277    -2.855498    -0.184722    -2.878300    20.658495    0.000000    0.000000    0.000000    -5.762071    5.417345    -5.631889    4.178493    7.810303    -2.439380    3.517050    -2.976684    -4.343800    0.000000    0.000000    0.000000    
8.027925    98.052734    20.547216    5.344086    0.090683    98.501877    -2.206688    -3.207551    -0.146304    3.309082    8.036607    -0.317101    7.246321    13.841605    14.079281    -11.940442    -2.973717    12.517677    14.572063    -4.508740    -27.166157    -45.261139    1.920970    -26.947714    6.197542    -39.749413    -140.773911    27.122526    -17.625587    32.009754    -7.864593    7.236615    -14.822017    42.117035    65.285522    39.568237    -0.796608    -3.649653    16.957497    -4.488575    -3.811397    7.156693    6.187624    8.159391    -5.558846    -5.704319    0.276556    -2.845438    -0.228453    -2.799443    20.626810    0.000000    0.000000    0.000000    -5.794408    5.414661    -5.572678    4.183825    7.774324    -2.474575    3.535120    -2.943958    -4.358349    0.000000    0.000000    0.000000    
8.043897    98.063438    20.526260    5.338082    0.099443    98.512901    -2.243393    -3.151738    -0.211409    3.435019    7.869608    -0.386050    7.239625    13.766041    14.120543    -12.072033    -2.623108    12.570439    14.493855    -4.433556    -27.183491    -45.053268    1.831614    -26.708813    6.126717    -39.855576    -140.776520    27.081266    -17.977196    31.949551    -7.912983    7.237779    -14.912478    41.980549    65.187393    39.730953    -0.667077    -3.443255    16.547743    -4.382058    -3.612635    6.962871    6.163784    8.206809    -5.549439    -5.692380    0.183934    -2.797535    -0.259431    -2.729180    20.570232    0.000000    0.000000    0.000000    -5.812206    5.434425    -5.476713    4.199456    7.743845    -2.508821    3.553787    -2.911762    -4.441421    0.000000    0.000000    0.000000    
8.059598    98.075752    20.503258    5.345847    0.110707    98.520264    -2.253514    -3.111745    -0.269875    3.483936    7.791926    -0.446207    7.189044    13.630328    14.190986    -11.995127    -2.350971    12.676785    14.531600    -4.419579    -27.124004    -45.016331    1.223062    -26.509085    5.781545    -39.052788    -140.954529    27.737572    -17.699593    31.809135    -7.927032    7.224030    -14.985409    41.953892    65.052643    39.779499    -0.606652    -3.353776    16.195580    -4.246378    -3.524585    6.935210    6.133202    8.272171    -5.538584    -5.661956    0.075717    -2.773023    -0.310923    -2.643312    20.536575    0.000000    0.000000    0.000000    -5.825574    5.464661    -5.400768    4.197357    7.720944    -2.494904    3.585982    -2.877103    -4.547388    0.000000    0.000000    0.000000    
8.074826    98.089989    20.479124    5.357891    0.128875    98.526306    -2.281051    -3.087235    -0.330731    3.557298    7.761899    -0.510700    7.251253    13.460306    14.256021    -12.102431    -2.004075    12.750661    14.599159    -4.471339    -27.111683    -44.981525    0.931558    -26.261087    5.704237    -38.899124    -141.017776    27.550127    -17.766865    31.744465    -7.947826    7.202248    -15.021261    42.107479    64.820068    39.636677    -0.560846    -3.148388    15.852561    -3.989482    -3.308654    6.842426    6.091733    8.347524    -5.517575    -5.627017    -0.039298    -2.741970    -0.340407    -2.540555    20.488337    0.000000    0.000000    0.000000    -5.846940    5.492996    -5.300560    4.197224    7.713616    -2.519444    3.623657    -2.852732    -4.635321    0.000000    0.000000    0.000000    
8.089806    98.099274    20.454435    5.374797    0.139931    98.514030    -2.297178    -3.078463    -0.383317    3.621085    7.778981    -0.567906    7.460791    13.236320    14.294458    -12.419686    -1.548009    12.768524    14.650677    -4.525891    -27.071142    -44.894199    0.686962    -26.061384    5.638652    -38.829731    -141.063370    27.693325    -17.785120    31.808027    -7.983180    7.189875    -15.001396    42.376839    64.590622    39.371536    -0.497628    -3.074696    15.602924    -4.153930    -3.248556    6.674123    6.059148    8.437185    -5.491609    -5.599627    -0.163642    -2.699537    -0.366004    -2.456842    20.433743    0.000000    0.000000    0.000000    -5.867663    5.524428    -5.183100    4.207882    7.700896    -2.551748    3.634644    -2.834552    -4.699655    0.000000    0.000000    0.000000    
8.099565    98.107979    20.431992    5.397810    0.145322    98.485397    -2.290413    -3.053777    -0.421923    3.661861    7.788801    -0.610405    7.442400    13.237038    14.285996    -12.451479    -1.548718    12.755285    14.685840    -4.562124    -27.047903    -44.758907    1.159725    -25.820887    6.010986    -39.869522    -140.823532    27.618896    -18.145056    31.905008    -8.009304    7.191958    -14.965623    42.883595    64.249374    38.860722    -0.423829    -2.955209    15.490782    -4.473747    -3.142525    6.272058    6.032023    8.520014    -5.469302    -5.572728    -0.260702    -2.702952    -0.395381    -2.396924    20.444540    0.000000    0.000000    0.000000    -5.883171    5.545802    -5.078595    4.206032    7.706389    -2.579973    3.700269    -2.819733    -4.734532    0.000000    0.000000    0.000000    
8.106710    98.111076    20.408939    5.416357    0.155296    98.444649    -2.282773    -3.031800    -0.462813    3.700075    7.795742    -0.654714    7.518917    13.091049    14.369215    -12.618266    -1.225964    12.839472    14.710582    -4.567561    -27.054533    -44.358673    0.862464    -25.606224    5.968400    -39.748577    -140.872025    28.251236    -17.820435    32.235176    -8.045553    7.189840    -14.867998    43.222904    63.950588    38.520367    -0.341562    -2.840350    15.223971    -4.446692    -3.038822    6.288216    5.995681    8.590638    -5.455164    -5.546887    -0.338496    -2.653745    -0.404901    -2.362027    20.417768    0.000000    0.000000    0.000000    -5.915491    5.557154    -5.007997    4.222865    7.730491    -2.554763    3.712458    -2.829620    -4.783453    0.000000    0.000000    0.000000    
8.109136    98.108803    20.387867    5.427695    0.160077    98.398491    -2.255949    -3.024955    -0.478643    3.689428    7.831396    -0.671749    7.641968    12.956559    14.422281    -12.796335    -0.962345    12.883982    14.803269    -4.612639    -27.103151    -44.207752    0.503722    -25.367952    5.928130    -39.611298    -140.921738    28.411983    -17.683004    32.267590    -8.051936    7.188184    -14.778403    43.651031    63.667564    38.059872    -0.240469    -2.873489    15.130172    -4.857743    -3.097740    6.041522    5.975219    8.636659    -5.458334    -5.546703    -0.378943    -2.647320    -0.372275    -2.358513    20.452362    0.000000    0.000000    0.000000    -5.936800    5.544030    -4.969111    4.218605    7.764794    -2.579272    3.729270    -2.838481    -4.748593    0.000000    0.000000    0.000000    
8.105912    98.101639    20.364710    5.434678    0.174493    98.339104    -2.225079    -3.005017    -0.478024    3.660860    7.836969    -0.670641    7.725759    12.850276    14.473940    -12.917376    -0.709860    12.937963    14.896379    -4.593931    -27.174400    -44.030525    0.172253    -25.147987    5.858824    -39.596695    -141.009201    28.509350    -17.744223    32.432800    -8.044193    7.180941    -14.682756    44.098305    63.396870    37.551201    -0.140337    -2.987261    15.082980    -5.138777    -3.221789    5.643772    5.942281    8.662329    -5.492939    -5.550447    -0.392557    -2.641717    -0.351364    -2.375300    20.527317    0.000000    0.000000    0.000000    -5.979602    5.516936    -4.979382    4.222070    7.827428    -2.515916    3.731071    -2.888658    -4.725453    0.000000    0.000000    0.000000    
8.101162    98.086456    20.340117    5.447502    0.195573    98.260452    -2.188153    -2.953978    -0.471979    3.647845    7.803796    -0.664497    7.747754    12.812698    14.574572    -13.061152    -0.547569    13.037256    14.914136    -4.661375    -27.275043    -43.828831    0.694039    -24.848665    6.397183    -40.871387    -140.665817    28.185715    -18.048399    32.673141    -8.072222    7.198122    -14.612711    44.449688    63.174057    37.168545    -0.063186    -3.080988    15.004706    -5.441920    -3.337368    5.573957    5.901227    8.691453    -5.508124    -5.559214    -0.385208    -2.637117    -0.304830    -2.423240    20.600628    0.000000    0.000000    0.000000    -6.037343    5.487941    -4.989861    4.226215    7.890483    -2.484433    3.723745    -2.943713    -4.639383    0.000000    0.000000    0.000000    
8.100606    98.072472    20.315224    5.461827    0.223165    98.183449    -2.169195    -2.918229    -0.446810    3.652003    7.791367    -0.640517    7.688851    12.849340    14.569832    -13.106627    -0.546368    13.030410    14.957836    -4.694350    -27.386732    -43.586300    0.170090    -24.545040    6.164982    -40.366062    -140.826172    28.252186    -17.996872    32.514744    -8.113645    7.179303    -14.567659    44.812660    63.037647    36.753277    0.009964    -3.173029    14.952200    -5.892154    -3.453716    5.434194    5.854769    8.712893    -5.502855    -5.571045    -0.353444    -2.662807    -0.258866    -2.479198    20.685902    0.000000    0.000000    0.000000    -6.099936    5.469611    -5.040198    4.235306    7.943342    -2.399327    3.697817    -2.997319    -4.583599    0.000000    0.000000    0.000000    
